<svg xmlns="http://www.w3.org/2000/svg" xmlns:xlink="http://www.w3.org/1999/xlink" viewBox="0,0,256,256" width="512px" height="512px"><defs><clipPath id="clip-1"><path d="M0,256v-256h256v256zM208.85133,201c2.42667,-3.85933 4.61067,-8.61467 5.712,-14.602c1.97867,-2.436 3.10333,-5.49733 3.10333,-8.73133c0,-7.71867 -6.28133,-14 -14,-14h-37.33333c-7.71867,0 -14,6.28133 -14,14c0,3.234 1.12467,6.29533 3.10333,8.73133c1.10133,5.98733 3.28533,10.74267 5.712,14.602c-2.42667,3.85933 -4.61067,8.61467 -5.712,14.602c-1.97867,2.436 -3.10333,5.49733 -3.10333,8.73133c0,7.71867 6.28133,14 14,14h37.33333c7.71867,0 14,-6.28133 14,-14c0,-3.234 -1.12467,-6.29533 -3.10333,-8.73133c-1.10133,-5.98733 -3.28533,-10.74267 -5.712,-14.602z" id="overlayBgMask" fill="none"></path></clipPath></defs><g clip-path="url(#clip-1)" fill="none" fill-rule="nonzero" stroke="none" stroke-width="1" stroke-linecap="butt" stroke-linejoin="miter" stroke-miterlimit="10" stroke-dasharray="" stroke-dashoffset="0" font-family="none" font-weight="none" font-size="none" text-anchor="none" style="mix-blend-mode: normal"><g transform="scale(2,2)"><path d="M64,48v0v0c-9.7,-7.6 -9.7,-22.4 0,-30v0v0c9.7,7.6 9.7,22.4 0,30z" fill="#52ddb2"></path><path d="M56.8,33.9c-0.1,0 -0.2,0 -0.3,0c-1.6,-0.2 -2.8,-1.7 -2.7,-3.3c0.7,-5.9 3.6,-11.2 8.3,-14.9c1.3,-1 3.2,-0.8 4.2,0.5c1,1.3 0.8,3.2 -0.5,4.2c-3.4,2.7 -5.6,6.5 -6.1,10.9c-0.1,1.5 -1.4,2.6 -2.9,2.6z" fill="#444b54"></path><path d="M64,48v0v0c-1.5,-12.3 8.9,-22.7 21.2,-21.2v0v0c1.5,12.3 -8.9,22.7 -21.2,21.2z" fill="#2b9e7d"></path><path d="M63.7,48v0v0c1.5,-12.3 -8.9,-22.7 -21.2,-21.2v0v0c-1.5,12.3 8.9,22.7 21.2,21.2z" fill="#ffffff"></path><path d="M66.4,51.1c-0.8,0 -1.7,0 -2.5,-0.1c-0.2,0 -0.3,0 -0.5,0c-1.6,-0.2 -2.8,-1.7 -2.6,-3.3v-0.2c0.1,-1.1 0.8,-2 1.8,-2.5c0.8,-0.3 1.7,-0.3 2.5,0.1c4.7,0.4 9.2,-1.3 12.6,-4.7c2.9,-2.9 4.6,-6.7 4.7,-10.8c-3.4,0.1 -6.7,1.3 -9.4,3.4c-0.9,0.7 -2,0.8 -3,0.4c-1,-0.4 -1.7,-1.3 -1.8,-2.4c-0.5,-4.3 -2.7,-8 -6,-10.7c-1.3,-1 -1.5,-2.9 -0.5,-4.2c1,-1.3 2.9,-1.5 4.2,-0.5c3.4,2.7 5.9,6.2 7.3,10.3c3.8,-1.9 8.1,-2.6 12.4,-2.1c1.4,0.2 2.4,1.2 2.6,2.6c0.8,6.8 -1.5,13.4 -6.3,18.3c-4.2,4.1 -9.7,6.4 -15.5,6.4zM42.6,35.2c-1.4,0 -2.7,-1 -3,-2.5c-0.3,-2.1 -0.4,-4.2 -0.1,-6.3c0.2,-1.4 1.2,-2.4 2.6,-2.6c6,-0.7 11.9,1 16.6,4.8c1.3,1 1.5,2.9 0.4,4.2c-1,1.3 -2.9,1.5 -4.2,0.4c-2.8,-2.2 -6.1,-3.5 -9.5,-3.6c0,0.7 0.1,1.4 0.2,2.1c0.3,1.6 -0.8,3.2 -2.5,3.4c-0.2,0.1 -0.3,0.1 -0.5,0.1z" fill="#444b54"></path><path d="M47.6,40c4.3,-0.2 8.4,0.4 12.2,1.7c2.7,0.9 5.7,0.9 8.4,0c3.8,-1.2 7.9,-1.8 12.2,-1.7c17.7,0.7 32.3,14.8 33.5,32.5c1.4,20.5 -14.8,37.5 -34.9,37.5c-5.4,0 -10.5,-1.2 -15,-3.4c-4.5,2.2 -9.6,3.4 -15,3.4c-20.1,0 -36.3,-17 -34.9,-37.4c1.2,-17.7 15.8,-31.9 33.5,-32.6z" fill="#ff697d"></path><path d="M25.5,61c-0.6,0 -1.2,-0.2 -1.8,-0.6c-1.3,-1 -1.6,-2.9 -0.7,-4.2c4.8,-6.7 12,-11.2 20,-12.7c1.6,-0.3 3.2,0.8 3.5,2.4c0.3,1.6 -0.8,3.2 -2.4,3.5c-6.5,1.2 -12.3,4.9 -16.3,10.3c-0.4,0.9 -1.3,1.3 -2.3,1.3zM20.6,72.2c-0.8,0 -1.6,-0.3 -2.1,-0.9c-0.1,-0.1 -0.3,-0.3 -0.4,-0.5c-0.1,-0.2 -0.2,-0.3 -0.3,-0.5c-0.1,-0.2 -0.1,-0.4 -0.2,-0.6c0,-0.2 -0.1,-0.4 -0.1,-0.6c0,-0.2 0,-0.4 0.1,-0.6c0,-0.2 0.1,-0.4 0.2,-0.6c0.1,-0.2 0.2,-0.4 0.3,-0.5c0.1,-0.2 0.2,-0.3 0.4,-0.4c1.1,-1.1 3.1,-1.1 4.2,0c0.6,0.6 0.9,1.3 0.9,2.1c0,0.8 -0.3,1.6 -0.9,2.1c-0.6,0.5 -1.3,1 -2.1,1z" fill="#ffffff"></path><path d="M98.2,45.8c3.6,5.5 5.8,12.1 5.8,19.2c0,19.3 -7.2,36 -30,36c-5,0 -7.9,-4.8 -11,-2.8c-5.6,3.5 -11.9,6 -19,4.8c-0.1,0 -0.1,0 -0.2,0c-6.4,0 -7.4,5.3 -1.1,6.4c2,0.4 4.1,0.6 6.3,0.6c5.4,0 10.5,-1.2 15,-3.4c4.5,2.1 9.6,3.4 14.9,3.4c18.6,0.1 34.3,-14.8 35.1,-33.4c0.5,-12.9 -5.9,-24.3 -15.8,-30.8z" fill="#c95065"></path><path d="M79,113c-2.4,0 -4.9,-0.2 -7.3,-0.7c-5.1,-1 -10.4,-1 -15.5,0c-2.4,0.5 -4.8,0.7 -7.3,0.7c-10.5,0 -20.6,-4.4 -27.8,-12.1c-7.1,-7.7 -10.7,-17.9 -10,-28.5c1.3,-19.1 17.3,-34.6 36.4,-35.4c4.2,-0.2 8.3,0.3 12.2,1.5c0.8,0.2 1.5,0.4 2.2,0.6c2.4,0.6 5.2,1.2 10.7,4c1.5,0.7 2.1,2.5 1.4,4c-0.7,1.5 -2.5,2.1 -4,1.4c-4.9,-2.4 -7.2,-3 -9.5,-3.5c-0.8,-0.2 -1.6,-0.4 -2.5,-0.6c-3.3,-1 -6.8,-1.4 -10.3,-1.3c-16.1,0.6 -29.6,13.7 -30.7,29.7c-0.6,9 2.4,17.5 8.5,24.1c6.2,6.5 14.5,10.1 23.5,10.1c2.1,0 4.1,-0.2 6.1,-0.6c5.9,-1.1 11.9,-1.1 17.8,0c2,0.4 4.1,0.6 6.1,0.6c9,0 17.3,-3.6 23.4,-10.2c6.1,-6.5 9.1,-15.1 8.5,-24.1c-1.1,-16 -14.5,-29 -30.6,-29.7c-1.7,-0.1 -2.9,-1.5 -2.9,-3.1c0.1,-1.7 1.5,-3 3.1,-2.9c19.1,0.7 35.1,16.3 36.4,35.3c0.7,10.7 -2.9,20.8 -10.1,28.6c-7.2,7.7 -17.3,12.1 -27.8,12.1z" fill="#444b54"></path></g></g><g fill="#000000" fill-rule="nonzero" stroke="none" stroke-width="1" stroke-linecap="butt" stroke-linejoin="miter" stroke-miterlimit="10" stroke-dasharray="" stroke-dashoffset="0" font-family="none" font-weight="none" font-size="none" text-anchor="none" style="mix-blend-mode: normal"><g transform="translate(161.66667,173) scale(4.66667,4.66667)" id="overlay"><path d="M9.458,10.125c-0.194,-1.957 -1.025,-3.166 -1.826,-4.125c0.801,-0.959 1.632,-2.168 1.826,-4.125c0.318,-0.167 0.542,-0.49 0.542,-0.875c0,-0.552 -0.447,-1 -1,-1h-8c-0.553,0 -1,0.448 -1,1c0,0.385 0.224,0.708 0.542,0.875c0.194,1.957 1.025,3.166 1.826,4.125c-0.801,0.959 -1.632,2.168 -1.826,4.125c-0.318,0.167 -0.542,0.49 -0.542,0.875c0,0.552 0.447,1 1,1h1.375h5.25h1.375c0.553,0 1,-0.448 1,-1c0,-0.385 -0.224,-0.708 -0.542,-0.875zM5,5.99l-0.72,-0.833c-0.787,-0.907 -1.478,-1.722 -1.699,-3.157h4.839c-0.221,1.435 -0.912,2.25 -1.7,3.157zM5,9c-0.459,0 -1.071,0.433 -1.591,1h-0.828c0.221,-1.435 0.912,-2.25 1.7,-3.157l0.719,-0.833l0.72,0.833c0.787,0.907 1.478,1.722 1.7,3.157h-0.829c-0.52,-0.567 -1.132,-1 -1.591,-1z"></path></g></g></svg>